<svg width="26" height="29" viewBox="0 0 26 29" fill="none" xmlns="http://www.w3.org/2000/svg">
<g filter="url(#filter0_d_27_452)">
<path d="M12.9999 14.1818C14.2049 14.1818 15.1818 13.205 15.1818 12C15.1818 10.795 14.2049 9.81818 12.9999 9.81818C11.7949 9.81818 10.8181 10.795 10.8181 12C10.8181 13.205 11.7949 14.1818 12.9999 14.1818Z" stroke="#00BBC9" stroke-width="1.2" stroke-linecap="round" stroke-linejoin="round"/>
<path d="M18.3818 14.1818C18.285 14.4012 18.2561 14.6445 18.2989 14.8804C18.3417 15.1164 18.4542 15.3341 18.6218 15.5055L18.6655 15.5491C18.8007 15.6842 18.908 15.8446 18.9812 16.0212C19.0544 16.1978 19.0921 16.387 19.0921 16.5782C19.0921 16.7693 19.0544 16.9586 18.9812 17.1352C18.908 17.3118 18.8007 17.4722 18.6655 17.6073C18.5304 17.7425 18.3699 17.8498 18.1934 17.923C18.0168 17.9962 17.8275 18.0339 17.6364 18.0339C17.4452 18.0339 17.2559 17.9962 17.0794 17.923C16.9028 17.8498 16.7424 17.7425 16.6073 17.6073L16.5636 17.5636C16.3922 17.396 16.1745 17.2835 15.9386 17.2407C15.7027 17.1979 15.4594 17.2268 15.24 17.3236C15.0249 17.4158 14.8414 17.5689 14.7122 17.764C14.583 17.9591 14.5137 18.1878 14.5127 18.4218V18.5455C14.5127 18.9312 14.3595 19.3012 14.0867 19.574C13.8139 19.8468 13.444 20 13.0582 20C12.6724 20 12.3024 19.8468 12.0297 19.574C11.7569 19.3012 11.6036 18.9312 11.6036 18.5455V18.48C11.598 18.2393 11.5201 18.0058 11.38 17.81C11.2399 17.6141 11.0442 17.4649 10.8182 17.3818C10.5988 17.285 10.3555 17.2561 10.1196 17.2989C9.88365 17.3417 9.66595 17.4542 9.49455 17.6218L9.45091 17.6655C9.31582 17.8007 9.1554 17.908 8.97882 17.9812C8.80224 18.0544 8.61297 18.0921 8.42182 18.0921C8.23067 18.0921 8.04139 18.0544 7.86481 17.9812C7.68824 17.908 7.52782 17.8007 7.39273 17.6655C7.25749 17.5304 7.1502 17.3699 7.077 17.1934C7.00381 17.0168 6.96613 16.8275 6.96613 16.6364C6.96613 16.4452 7.00381 16.2559 7.077 16.0794C7.1502 15.9028 7.25749 15.7424 7.39273 15.6073L7.43636 15.5636C7.60403 15.3922 7.7165 15.1745 7.75928 14.9386C7.80205 14.7027 7.77317 14.4594 7.67636 14.24C7.58417 14.0249 7.43109 13.8414 7.23597 13.7122C7.04085 13.583 6.81221 13.5137 6.57818 13.5127H6.45455C6.06878 13.5127 5.69881 13.3595 5.42603 13.0867C5.15325 12.8139 5 12.444 5 12.0582C5 11.6724 5.15325 11.3024 5.42603 11.0297C5.69881 10.7569 6.06878 10.6036 6.45455 10.6036H6.52C6.76072 10.598 6.99419 10.5201 7.19004 10.38C7.38589 10.2399 7.53507 10.0442 7.61818 9.81818C7.71499 9.59882 7.74387 9.3555 7.70109 9.11957C7.65832 8.88365 7.54585 8.66595 7.37818 8.49455L7.33455 8.45091C7.19931 8.31582 7.09202 8.1554 7.01882 7.97882C6.94562 7.80224 6.90795 7.61297 6.90795 7.42182C6.90795 7.23067 6.94562 7.04139 7.01882 6.86481C7.09202 6.68824 7.19931 6.52782 7.33455 6.39273C7.46963 6.25749 7.63005 6.1502 7.80663 6.077C7.98321 6.00381 8.17249 5.96613 8.36364 5.96613C8.55479 5.96613 8.74406 6.00381 8.92064 6.077C9.09722 6.1502 9.25764 6.25749 9.39273 6.39273L9.43636 6.43636C9.60777 6.60403 9.82547 6.7165 10.0614 6.75928C10.2973 6.80205 10.5406 6.77317 10.76 6.67636H10.8182C11.0333 6.58417 11.2167 6.43109 11.346 6.23597C11.4752 6.04085 11.5445 5.81221 11.5455 5.57818V5.45455C11.5455 5.06878 11.6987 4.69881 11.9715 4.42603C12.2443 4.15325 12.6142 4 13 4C13.3858 4 13.7557 4.15325 14.0285 4.42603C14.3013 4.69881 14.4545 5.06878 14.4545 5.45455V5.52C14.4555 5.75403 14.5248 5.98267 14.654 6.17779C14.7833 6.37291 14.9667 6.52599 15.1818 6.61818C15.4012 6.71499 15.6445 6.74387 15.8804 6.70109C16.1164 6.65832 16.3341 6.54585 16.5055 6.37818L16.5491 6.33455C16.6842 6.19931 16.8446 6.09202 17.0212 6.01882C17.1978 5.94562 17.387 5.90795 17.5782 5.90795C17.7693 5.90795 17.9586 5.94562 18.1352 6.01882C18.3118 6.09202 18.4722 6.19931 18.6073 6.33455C18.7425 6.46963 18.8498 6.63005 18.923 6.80663C18.9962 6.98321 19.0339 7.17249 19.0339 7.36364C19.0339 7.55479 18.9962 7.74406 18.923 7.92064C18.8498 8.09722 18.7425 8.25764 18.6073 8.39273L18.5636 8.43636C18.396 8.60777 18.2835 8.82547 18.2407 9.06139C18.1979 9.29731 18.2268 9.54064 18.3236 9.76V9.81818C18.4158 10.0333 18.5689 10.2167 18.764 10.346C18.9591 10.4752 19.1878 10.5445 19.4218 10.5455H19.5455C19.9312 10.5455 20.3012 10.6987 20.574 10.9715C20.8468 11.2443 21 11.6142 21 12C21 12.3858 20.8468 12.7557 20.574 13.0285C20.3012 13.3013 19.9312 13.4545 19.5455 13.4545H19.48C19.246 13.4555 19.0173 13.5248 18.8222 13.654C18.6271 13.7833 18.474 13.9667 18.3818 14.1818V14.1818Z" stroke="#091C3F" stroke-width="1.2" stroke-linecap="round" stroke-linejoin="round"/>
</g>
<defs>
<filter id="filter0_d_27_452" x="0.399902" y="3.39999" width="25.2002" height="25.2" filterUnits="userSpaceOnUse" color-interpolation-filters="sRGB">
<feFlood flood-opacity="0" result="BackgroundImageFix"/>
<feColorMatrix in="SourceAlpha" type="matrix" values="0 0 0 0 0 0 0 0 0 0 0 0 0 0 0 0 0 0 127 0" result="hardAlpha"/>
<feOffset dy="4"/>
<feGaussianBlur stdDeviation="2"/>
<feComposite in2="hardAlpha" operator="out"/>
<feColorMatrix type="matrix" values="0 0 0 0 0 0 0 0 0 0 0 0 0 0 0 0 0 0 0.25 0"/>
<feBlend mode="normal" in2="BackgroundImageFix" result="effect1_dropShadow_27_452"/>
<feBlend mode="normal" in="SourceGraphic" in2="effect1_dropShadow_27_452" result="shape"/>
</filter>
</defs>
</svg>
